<?xml version="1.0" encoding="utf-8"?>
<!-- Generator: Adobe Illustrator 19.1.0, SVG Export Plug-In . SVG Version: 6.00 Build 0)  -->
<svg version="1.1" id="Layer_1" xmlns="http://www.w3.org/2000/svg" xmlns:xlink="http://www.w3.org/1999/xlink" x="0px" y="0px"
	 viewBox="2 -3 19 18" enable-background="new 2 -3 19 18" xml:space="preserve">
<polygon fill="#222222" points="8.5,11.1 8.5,4 14.5,7.1 "/>
<path fill="#222222" d="M19.2,0.5H3.8C2.8,0.5,2,1.4,2,2.4v10.4c0,1,0.8,1.8,1.8,1.8h15.4c1,0,1.8-0.8,1.8-1.8V2.4
	C21,1.4,20.2,0.5,19.2,0.5z M19.1,12.6H4V2.3h15.1V12.6z"/>
<g>
	<path fill="#222222" d="M7.7-2.4c1.3,1.3,2.6,2.7,3.9,4c0.3,0.3,0.8-0.2,0.5-0.5c-1.3-1.3-2.6-2.7-3.9-4C7.9-3.2,7.4-2.7,7.7-2.4
		L7.7-2.4z"/>
</g>
<g>
	<path fill="#222222" d="M15.1-2.9c-1.3,1.3-2.6,2.7-3.9,4c-0.2,0.3,0.2,0.8,0.5,0.5c1.3-1.3,2.6-2.7,3.9-4
		C15.9-2.7,15.4-3.2,15.1-2.9L15.1-2.9z"/>
</g>
</svg>
