<?xml version="1.0" encoding="utf-8"?>
<!-- Generator: Adobe Illustrator 19.1.0, SVG Export Plug-In . SVG Version: 6.00 Build 0)  -->
<svg version="1.1" id="Layer_1" xmlns="http://www.w3.org/2000/svg" xmlns:xlink="http://www.w3.org/1999/xlink" x="0px" y="0px"
	 viewBox="0 0 37.9 49.4" style="enable-background:new 0 0 37.9 49.4;" xml:space="preserve">
<style type="text/css">
	.st0{fill:none;}
	.st1{fill:url(#SVGID_1_);}
	.st2{fill:#FFFFFF;}
	.st3{fill:#F7941E;}
	.st4{fill:#21409A;}
</style>
<g>
	<path class="st0" d="M16.5,0.1l-4.6,6.7c0,0,4.5-3.3,7.7-2.8c0,0,2,0.2,5.7,2.7l5,3.1c0,0-8-1.3-15.5,1c0,0-12.5,3.6-14.9,16.3V5.2
		c0,0,0.1-5.2,6.5-5.2H16.5z"/>
	<path class="st0" d="M37.9,5.2c0,0-0.1-5.2-6.5-5.2h-8.7l-1,0l16.3,9.8L37.9,5.2z"/>
	
		<linearGradient id="SVGID_1_" gradientUnits="userSpaceOnUse" x1="117.2368" y1="695.47" x2="117.3312" y2="695.47" gradientTransform="matrix(-174.4202 -290.6999 -290.6999 174.4202 222651.3438 -87186.5938)">
		<stop  offset="0" style="stop-color:#E8E8E8"/>
		<stop  offset="1" style="stop-color:#E6E6E6"/>
	</linearGradient>
	<path class="st1" d="M22.9,28.4c-2.2,0-4.1-1.8-4.1-4.1c0-2.2,1.8-4.1,4.1-4.1c2.2,0,4.1,1.8,4.1,4.1C27,26.6,25.1,28.4,22.9,28.4
		 M13.3,16c-10.4,7.5-7.5,17-7.5,17h26.6c5.4-0.7,5.5-5,5.5-5v-14C37.9,13.9,23.6,8.5,13.3,16"/>
	<path class="st2" d="M37.9,9.9l0-4.7c0,0-0.1-5.2-6.5-5.2H16.5H6.4C0.1,0,0,6,0,5.2v21.9c0,0,0-0.1,0-0.1v1.9c0,0,0.1,4.3,5.5,5
		l0.4,0l26.5,0c5.4-0.6,5.5-5.3,5.5-5V14.5l0-0.7L37.9,9.9z"/>
	<path class="st3" d="M16.5,0l-4.6,6.7c0,0,4.5-3.3,7.7-2.8c0,0,1.9,0.2,5.7,2.7l5,3.1c0,0-8-1.3-15.5,1c0,0-12.5,3.6-14.9,16.3V5.2
		C0,5.2,0.1,0,6.5,0H16.5z"/>
	<path class="st3" d="M37.9,5.2c0,0-0.1-5.2-6.5-5.2h-8.7l-1,0l16.3,9.8L37.9,5.2z"/>
	<path class="st4" d="M22.9,28.3c-2.2,0-4.1-1.8-4.1-4.1c0-2.2,1.8-4.1,4.1-4.1c2.2,0,4.1,1.8,4.1,4.1C27,26.5,25.1,28.3,22.9,28.3
		 M13.3,15.9c-10.4,7.5-7.5,18-7.5,18h26.6c5.4-0.7,5.5-5,5.5-5v-15C37.9,13.9,23.6,8.4,13.3,15.9"/>
</g>
<g>
	<g>
		<g>
			<path class="st2" d="M1.3,49.2V37.5h1.6L9,46.7v-9.1h1.5v11.7H8.9L2.8,40v9.1H1.3z"/>
		</g>
		<g>
			<path class="st2" d="M17.5,46.5l1.4,0.2c-0.2,0.9-0.7,1.5-1.3,2c-0.6,0.5-1.4,0.7-2.4,0.7c-1.2,0-2.2-0.4-2.9-1.1
				c-0.7-0.8-1.1-1.8-1.1-3.2c0-1.4,0.4-2.5,1.1-3.3c0.7-0.8,1.7-1.2,2.8-1.2c1.1,0,2,0.4,2.8,1.2c0.7,0.8,1.1,1.8,1.1,3.2
				c0,0.1,0,0.2,0,0.4h-6.3c0.1,0.9,0.3,1.6,0.8,2.1c0.5,0.5,1.1,0.7,1.8,0.7c0.5,0,1-0.1,1.4-0.4C16.9,47.5,17.2,47.1,17.5,46.5z
				 M12.7,44.2h4.8c-0.1-0.7-0.2-1.3-0.5-1.6c-0.5-0.6-1.1-0.8-1.8-0.8c-0.7,0-1.2,0.2-1.7,0.7C13,42.9,12.8,43.4,12.7,44.2z"/>
		</g>
		<g>
			<path class="st2" d="M21,49.2l-2.6-8.4h1.5l1.4,4.9l0.5,1.8c0-0.1,0.2-0.7,0.5-1.7l1.3-4.9H25l1.3,4.9l0.4,1.6l0.5-1.6l1.5-4.9
				H30l-2.7,8.4h-1.5l-1.3-5.1l-0.3-1.4l-1.7,6.5H21z"/>
		</g>
		<g>
			<path class="st2" d="M29.6,46.6l1.4-0.2c0.1,0.6,0.3,1,0.7,1.3c0.4,0.3,0.9,0.5,1.5,0.5c0.7,0,1.1-0.1,1.5-0.4
				c0.3-0.3,0.5-0.6,0.5-0.9c0-0.3-0.1-0.6-0.4-0.8c-0.2-0.1-0.7-0.3-1.5-0.5c-1-0.3-1.8-0.5-2.2-0.7c-0.4-0.2-0.7-0.5-0.9-0.8
				c-0.2-0.3-0.3-0.7-0.3-1.1c0-0.4,0.1-0.7,0.3-1c0.2-0.3,0.4-0.6,0.7-0.8c0.2-0.2,0.5-0.3,0.9-0.4c0.4-0.1,0.8-0.2,1.2-0.2
				c0.7,0,1.2,0.1,1.7,0.3c0.5,0.2,0.9,0.4,1.1,0.8c0.2,0.3,0.4,0.7,0.5,1.3l-1.4,0.2c-0.1-0.4-0.2-0.8-0.5-1
				c-0.3-0.2-0.7-0.4-1.3-0.4c-0.7,0-1.1,0.1-1.4,0.3c-0.3,0.2-0.4,0.5-0.4,0.8c0,0.2,0.1,0.4,0.2,0.5c0.1,0.2,0.3,0.3,0.5,0.4
				c0.1,0.1,0.6,0.2,1.3,0.4c1,0.3,1.7,0.5,2.1,0.7c0.4,0.2,0.7,0.4,1,0.7c0.2,0.3,0.3,0.7,0.3,1.2c0,0.5-0.1,0.9-0.4,1.3
				c-0.3,0.4-0.7,0.7-1.2,1c-0.5,0.2-1.1,0.3-1.8,0.3c-1.1,0-1.9-0.2-2.5-0.7C30.2,48.2,29.8,47.5,29.6,46.6z"/>
		</g>
	</g>
</g>
</svg>
