<?xml version="1.0" encoding="utf-8"?>
<!-- Generator: Adobe Illustrator 19.1.0, SVG Export Plug-In . SVG Version: 6.00 Build 0)  -->
<svg version="1.1" id="Layer_1" xmlns="http://www.w3.org/2000/svg" xmlns:xlink="http://www.w3.org/1999/xlink" x="0px" y="0px"
	 viewBox="9 -15.4 37.9 49.4" style="enable-background:new 9 -15.4 37.9 49.4;" xml:space="preserve">
<style type="text/css">
	.st0{fill:none;}
	.st1{fill:url(#SVGID_1_);}
	.st2{fill:#FFFFFF;}
	.st3{fill:#F7941E;}
	.st4{fill:#21409A;}
</style>
<g>
	<path class="st0" d="M25.5-15.3l-4.6,6.7c0,0,4.5-3.3,7.7-2.8c0,0,2,0.2,5.7,2.7l5,3.1c0,0-8-1.3-15.5,1c0,0-12.5,3.6-14.9,16.3
		v-21.9c0,0,0.1-5.2,6.5-5.2h10.1V-15.3z"/>
	<path class="st0" d="M46.9-10.2c0,0-0.1-5.2-6.5-5.2h-8.7h-1L47-5.6L46.9-10.2z"/>
	
		<linearGradient id="SVGID_1_" gradientUnits="userSpaceOnUse" x1="135.2909" y1="-676.8687" x2="135.3853" y2="-676.8687" gradientTransform="matrix(-174.4202 -290.6999 290.6999 -174.4202 220401.8906 -78709.1797)">
		<stop  offset="0" style="stop-color:#E8E8E8"/>
		<stop  offset="1" style="stop-color:#E6E6E6"/>
	</linearGradient>
	<path class="st1" d="M31.9,13c-2.2,0-4.1-1.8-4.1-4.1c0-2.2,1.8-4.1,4.1-4.1c2.2,0,4.1,1.8,4.1,4.1S34.1,13,31.9,13 M22.3,0.6
		c-10.4,7.5-7.5,17-7.5,17h26.6c5.4-0.7,5.5-5,5.5-5v-14C46.9-1.5,32.6-6.9,22.3,0.6"/>
	<path class="st2" d="M46.9-5.5v-4.7c0,0-0.1-5.2-6.5-5.2H25.5H15.4c-6.3,0-6.4,6-6.4,5.2v21.9v-0.1v1.9c0,0,0.1,4.3,5.5,5h0.4h26.5
		c5.4-0.6,5.5-5.3,5.5-5V-0.9v-0.7V-5.5z"/>
	<path class="st3" d="M25.5-15.4l-4.6,6.7c0,0,4.5-3.3,7.7-2.8c0,0,1.9,0.2,5.7,2.7l5,3.1c0,0-8-1.3-15.5,1c0,0-12.5,3.6-14.9,16.3
		v-21.8c0.1,0,0.2-5.2,6.6-5.2H25.5z"/>
	<path class="st3" d="M46.9-10.2c0,0-0.1-5.2-6.5-5.2h-8.7h-1L47-5.6L46.9-10.2z"/>
	<path class="st4" d="M31.9,12.9c-2.2,0-4.1-1.8-4.1-4.1c0-2.2,1.8-4.1,4.1-4.1c2.2,0,4.1,1.8,4.1,4.1S34.1,12.9,31.9,12.9
		 M22.3,0.5c-10.4,7.5-7.5,18-7.5,18h26.6c5.4-0.7,5.5-5,5.5-5v-15C46.9-1.5,32.6-7,22.3,0.5"/>
</g>
<g>
	<g>
		<g>
			<path class="st4" d="M10.3,33.8V22.1h1.6l6.1,9.2v-9.1h1.5v11.7h-1.6l-6.1-9.3v9.1h-1.5V33.8z"/>
		</g>
		<g>
			<path class="st4" d="M26.5,31.1l1.4,0.2c-0.2,0.9-0.7,1.5-1.3,2C26,33.8,25.2,34,24.2,34c-1.2,0-2.2-0.4-2.9-1.1
				c-0.7-0.8-1.1-1.8-1.1-3.2s0.4-2.5,1.1-3.3c0.7-0.8,1.7-1.2,2.8-1.2c1.1,0,2,0.4,2.8,1.2c0.7,0.8,1.1,1.8,1.1,3.2
				c0,0.1,0,0.2,0,0.4h-6.3c0.1,0.9,0.3,1.6,0.8,2.1s1.1,0.7,1.8,0.7c0.5,0,1-0.1,1.4-0.4C25.9,32.1,26.2,31.7,26.5,31.1z
				 M21.7,28.8h4.8c-0.1-0.7-0.2-1.3-0.5-1.6c-0.5-0.6-1.1-0.8-1.8-0.8c-0.7,0-1.2,0.2-1.7,0.7C22,27.5,21.8,28,21.7,28.8z"/>
		</g>
		<g>
			<path class="st4" d="M30,33.8l-2.6-8.4h1.5l1.4,4.9l0.5,1.8c0-0.1,0.2-0.7,0.5-1.7l1.3-4.9H34l1.3,4.9l0.4,1.6l0.5-1.6l1.5-4.9
				H39l-2.7,8.4h-1.5l-1.3-5.1l-0.3-1.4l-1.7,6.5H30V33.8z"/>
		</g>
		<g>
			<path class="st4" d="M38.6,31.2L40,31c0.1,0.6,0.3,1,0.7,1.3s0.9,0.5,1.5,0.5c0.7,0,1.1-0.1,1.5-0.4c0.3-0.3,0.5-0.6,0.5-0.9
				c0-0.3-0.1-0.6-0.4-0.8c-0.2-0.1-0.7-0.3-1.5-0.5c-1-0.3-1.8-0.5-2.2-0.7s-0.7-0.5-0.9-0.8c-0.2-0.3-0.3-0.7-0.3-1.1
				c0-0.4,0.1-0.7,0.3-1c0.2-0.3,0.4-0.6,0.7-0.8c0.2-0.2,0.5-0.3,0.9-0.4c0.4-0.1,0.8-0.2,1.2-0.2c0.7,0,1.2,0.1,1.7,0.3
				s0.9,0.4,1.1,0.8c0.2,0.3,0.4,0.7,0.5,1.3l-1.4,0.2c-0.1-0.4-0.2-0.8-0.5-1s-0.7-0.4-1.3-0.4c-0.7,0-1.1,0.1-1.4,0.3
				c-0.3,0.2-0.4,0.5-0.4,0.8c0,0.2,0.1,0.4,0.2,0.5c0.1,0.2,0.3,0.3,0.5,0.4c0.1,0.1,0.6,0.2,1.3,0.4c1,0.3,1.7,0.5,2.1,0.7
				c0.4,0.2,0.7,0.4,1,0.7c0.2,0.3,0.3,0.7,0.3,1.2s-0.1,0.9-0.4,1.3c-0.3,0.4-0.7,0.7-1.2,1C43.6,33.9,43,34,42.3,34
				c-1.1,0-1.9-0.2-2.5-0.7C39.2,32.8,38.8,32.1,38.6,31.2z"/>
		</g>
	</g>
</g>
</svg>
