<?xml version="1.0" encoding="utf-8"?>
<!-- Generator: Adobe Illustrator 19.1.0, SVG Export Plug-In . SVG Version: 6.00 Build 0)  -->
<svg version="1.1" id="Layer_1" xmlns="http://www.w3.org/2000/svg" xmlns:xlink="http://www.w3.org/1999/xlink" x="0px" y="0px"
	 viewBox="-218 33.6 37.9 49.4" enable-background="new -218 33.6 37.9 49.4" xml:space="preserve">
<path fill="none" d="M-201.5,33.7l-4.6,6.7c0,0,4.5-3.3,7.7-2.8c0,0,2,0.2,5.7,2.7l5,3.1c0,0-8-1.3-15.5,1c0,0-12.5,3.6-14.9,16.3
	V38.8c0,0,0.1-5.2,6.5-5.2h10.1V33.7z"/>
<path fill="none" d="M-180.1,38.8c0,0-0.1-5.2-6.5-5.2h-8.7h-1l16.3,9.8L-180.1,38.8z"/>
<linearGradient id="SVGID_1_" gradientUnits="userSpaceOnUse" x1="-301.1462" y1="793.0119" x2="-301.0518" y2="793.0119" gradientTransform="matrix(-174.4202 -290.6999 -290.6999 174.4202 177814.2969 -225790.125)">
	<stop  offset="0" style="stop-color:#E8E8E8"/>
	<stop  offset="1" style="stop-color:#E6E6E6"/>
</linearGradient>
<path fill="url(#SVGID_1_)" d="M-195.1,62c-2.2,0-4.1-1.8-4.1-4.1c0-2.2,1.8-4.1,4.1-4.1c2.2,0,4.1,1.8,4.1,4.1
	C-191,60.2-192.9,62-195.1,62 M-204.7,49.6c-10.4,7.5-7.5,17-7.5,17h26.6c5.4-0.7,5.5-5,5.5-5v-14
	C-180.1,47.5-194.4,42.1-204.7,49.6"/>
<path fill="#FFFFFF" d="M-180.1,43.5v-4.7c0,0-0.1-5.2-6.5-5.2h-14.9h-10.1c-6.3,0-6.4,6-6.4,5.2v21.9v-0.1v1.9c0,0,0.1,4.3,5.5,5
	h0.4h26.5c5.4-0.6,5.5-5.3,5.5-5V48.1v-0.7V43.5z"/>
<path fill="#589C23" d="M-201.5,33.6l-4.6,6.7c0,0,4.5-3.3,7.7-2.8c0,0,1.9,0.2,5.7,2.7l5,3.1c0,0-8-1.3-15.5,1
	c0,0-12.5,3.6-14.9,16.3V38.8c0.1,0,0.2-5.2,6.6-5.2C-211.5,33.6-201.5,33.6-201.5,33.6z"/>
<path fill="#589C23" d="M-180.1,38.8c0,0-0.1-5.2-6.5-5.2h-8.7h-1l16.3,9.8L-180.1,38.8z"/>
<path fill="#0E713B" d="M-195.1,61.9c-2.2,0-4.1-1.8-4.1-4.1c0-2.2,1.8-4.1,4.1-4.1c2.2,0,4.1,1.8,4.1,4.1S-192.9,61.9-195.1,61.9
	 M-204.7,49.5c-10.4,7.5-7.5,18-7.5,18l26.6-0.1c5.4-0.7,5.5-5,5.5-5l0-15C-180.1,47.5-194.4,42-204.7,49.5"/>
<g>
	<g>
		<g>
			<path fill="#3E3E3E" d="M-216.7,82.8V71.1h1.6l6.1,9.2v-9.1h1.5v11.7h-1.6l-6.1-9.3v9.1h-1.5C-216.7,82.7-216.7,82.8-216.7,82.8z
				"/>
		</g>
		<g>
			<path fill="#3E3E3E" d="M-200.5,80.1l1.4,0.2c-0.2,0.9-0.7,1.5-1.3,2c-0.6,0.5-1.4,0.7-2.4,0.7c-1.2,0-2.2-0.4-2.9-1.1
				c-0.7-0.8-1.1-1.8-1.1-3.2c0-1.4,0.4-2.5,1.1-3.3s1.7-1.2,2.8-1.2c1.1,0,2,0.4,2.8,1.2c0.7,0.8,1.1,1.8,1.1,3.2
				c0,0.1,0,0.2,0,0.4h-6.3c0.1,0.9,0.3,1.6,0.8,2.1s1.1,0.7,1.8,0.7c0.5,0,1-0.1,1.4-0.4C-201.1,81.1-200.8,80.7-200.5,80.1z
				 M-205.3,77.8h4.8c-0.1-0.7-0.2-1.3-0.5-1.6c-0.5-0.6-1.1-0.8-1.8-0.8s-1.2,0.2-1.7,0.7C-205,76.5-205.2,77-205.3,77.8z"/>
		</g>
		<g>
			<path fill="#3E3E3E" d="M-197,82.8l-2.6-8.4h1.5l1.4,4.9l0.5,1.8c0-0.1,0.2-0.7,0.5-1.7l1.3-4.9h1.4l1.3,4.9l0.4,1.6l0.5-1.6
				l1.5-4.9h1.3l-2.7,8.4h-1.5l-1.3-5.1l-0.3-1.4l-1.7,6.5L-197,82.8L-197,82.8z"/>
		</g>
		<g>
			<path fill="#3E3E3E" d="M-188.4,80.2l1.4-0.2c0.1,0.6,0.3,1,0.7,1.3c0.4,0.3,0.9,0.5,1.5,0.5c0.7,0,1.1-0.1,1.5-0.4
				c0.3-0.3,0.5-0.6,0.5-0.9c0-0.3-0.1-0.6-0.4-0.8c-0.2-0.1-0.7-0.3-1.5-0.5c-1-0.3-1.8-0.5-2.2-0.7c-0.4-0.2-0.7-0.5-0.9-0.8
				c-0.2-0.3-0.3-0.7-0.3-1.1s0.1-0.7,0.3-1s0.4-0.6,0.7-0.8c0.2-0.2,0.5-0.3,0.9-0.4c0.4-0.1,0.8-0.2,1.2-0.2
				c0.7,0,1.2,0.1,1.7,0.3s0.9,0.4,1.1,0.8c0.2,0.3,0.4,0.7,0.5,1.3l-1.4,0.2c-0.1-0.4-0.2-0.8-0.5-1c-0.3-0.2-0.7-0.4-1.3-0.4
				c-0.7,0-1.1,0.1-1.4,0.3s-0.4,0.5-0.4,0.8c0,0.2,0.1,0.4,0.2,0.5c0.1,0.2,0.3,0.3,0.5,0.4c0.1,0.1,0.6,0.2,1.3,0.4
				c1,0.3,1.7,0.5,2.1,0.7c0.4,0.2,0.7,0.4,1,0.7c0.2,0.3,0.3,0.7,0.3,1.2s-0.1,0.9-0.4,1.3c-0.3,0.4-0.7,0.7-1.2,1
				c-0.5,0.2-1.1,0.3-1.8,0.3c-1.1,0-1.9-0.2-2.5-0.7C-187.8,81.8-188.2,81.1-188.4,80.2z"/>
		</g>
	</g>
</g>
</svg>
