<?xml version="1.0" encoding="utf-8"?>
<!-- Generator: Adobe Illustrator 19.1.0, SVG Export Plug-In . SVG Version: 6.00 Build 0)  -->
<svg version="1.1" id="Layer_1" xmlns="http://www.w3.org/2000/svg" xmlns:xlink="http://www.w3.org/1999/xlink" x="0px" y="0px"
	 viewBox="237 -231.2 483.2 483.2" enable-background="new 237 -231.2 483.2 483.2" xml:space="preserve">
<g>
	<path d="M479,99.2c42.4,0,80-34.4,80-77.6v-175.2c0-42.4-37.6-77.6-80-77.6s-80,34.4-80,77.6V21.6C399,64,436.6,99.2,479,99.2z
		 M439-153.6c0-21.6,18.4-39.2,40-39.2s40,17.6,40,39.2V21.6c0,21.6-18.4,39.2-40,39.2s-40-17.6-40-39.2V-153.6z"/>
	<path d="M495,179.2c80-9.6,142.4-76.8,142.4-158.4c0-10.4-8-19.2-18.4-19.2s-18.4,8.8-18.4,19.2c0,67.2-54.4,121.6-121.6,121.6
		S357.4,87.2,357.4,20c0-10.4-8.8-19.2-19.2-19.2c-10.4,0-17.6,8.8-17.6,19.2c0,81.6,62.4,149.6,142.4,158.4v34.4
		c0,1.6-3.2-1.6-2.4,6.4h-24c-10.4,0-19.2,5.6-19.2,16s8.8,16,19.2,16h84.8c10.4,0,19.2-5.6,19.2-16s-8.8-16-19.2-16h-24
		c0-8-2.4-5.6-2.4-6.4L495,179.2L495,179.2z"/>
</g>
</svg>
