<?xml version="1.0" encoding="utf-8"?>
<!-- Generator: Adobe Illustrator 19.1.0, SVG Export Plug-In . SVG Version: 6.00 Build 0)  -->
<svg version="1.1" id="Layer_1" xmlns="http://www.w3.org/2000/svg" xmlns:xlink="http://www.w3.org/1999/xlink" x="0px" y="0px"
	 viewBox="0 0 20 16" enable-background="new 0 0 20 16" xml:space="preserve">
<path fill="#FFFFFF" d="M3.5,0v16l6.5-4.1l6.5,4.1V0H3.5z M14,5.4l-2,1.7l0.6,2.6c0,0.1,0,0.3-0.1,0.3c-0.1,0.1-0.2,0.1-0.3,0
	L10,8.5L7.8,9.9C7.6,10,7.5,10,7.4,10C7.4,9.9,7.3,9.8,7.4,9.6L8,7.1L6,5.4C5.9,5.3,5.8,5.2,5.9,5.1C5.9,5,6,4.9,6.1,4.9l2.6-0.2
	l1-2.5C9.8,2.1,9.9,2.1,10,2.1c0.1,0,0.2,0.1,0.2,0.2l1,2.5l2.6,0.2c0.1,0,0.2,0.1,0.3,0.2C14.2,5.2,14.1,5.3,14,5.4z"/>
</svg>
