<?xml version="1.0" encoding="utf-8"?>
<!-- Generator: Adobe Illustrator 19.1.0, SVG Export Plug-In . SVG Version: 6.00 Build 0)  -->
<svg version="1.1" id="Layer_1" xmlns="http://www.w3.org/2000/svg" xmlns:xlink="http://www.w3.org/1999/xlink" x="0px" y="0px"
	 viewBox="0 0 20 16" enable-background="new 0 0 20 16" xml:space="preserve">
<g>
	<g>
		<path fill="#FFFFFF" d="M1.3,12.6v3c0,0.2,0.2,0.3,0.3,0.3H4c0.2,0,0.3-0.2,0.3-0.3v-5.3L2.6,12C2.2,12.3,1.8,12.5,1.3,12.6z"/>
		<path fill="#FFFFFF" d="M5.5,10.2v5.4c0,0.2,0.2,0.3,0.3,0.3h2.3c0.2,0,0.3-0.2,0.3-0.3v-3.2c-0.5,0-1-0.2-1.4-0.6L5.5,10.2z"/>
		<path fill="#FFFFFF" d="M9.7,12.1v3.5c0,0.2,0.2,0.3,0.3,0.3h2.3c0.2,0,0.3-0.2,0.3-0.3V9.2L10,11.8C9.9,12,9.8,12,9.7,12.1z"/>
		<path fill="#FFFFFF" d="M16.7,5.2L13.9,8v7.6c0,0.2,0.2,0.3,0.3,0.3h2.3c0.2,0,0.3-0.2,0.3-0.3V5.4C16.8,5.3,16.8,5.3,16.7,5.2
			L16.7,5.2z"/>
		<path fill="#FFFFFF" d="M18.6,0.2C18.5,0.1,18.3,0,18.1,0c0,0,0,0-0.1,0c-1.1,0.1-2.2,0.1-3.3,0.2c-0.1,0-0.3,0-0.5,0.2
			c-0.1,0.1-0.1,0.1-0.1,0.2c-0.2,0.4,0.1,0.6,0.2,0.7l0.3,0.3c0.2,0.2,0.4,0.4,0.6,0.6L8.5,8.7l-3-3C5.4,5.5,5.2,5.4,4.9,5.4
			S4.4,5.5,4.2,5.7l-4,4c-0.4,0.4-0.4,1,0,1.3l0.2,0.2c0.2,0.2,0.4,0.3,0.7,0.3s0.5-0.1,0.7-0.3l3.1-3.1l3,3
			c0.2,0.2,0.4,0.3,0.7,0.3c0.3,0,0.5-0.1,0.7-0.3l7.5-7.5l0.8,0.8c0.1,0.1,0.2,0.2,0.5,0.2c0.1,0,0.2,0,0.3-0.1
			c0.1,0,0.1-0.1,0.2-0.1c0.2-0.2,0.2-0.4,0.2-0.5c0-0.7,0.1-1.4,0.1-2.1l0.1-1.1C18.8,0.5,18.7,0.3,18.6,0.2z"/>
	</g>
</g>
</svg>
