<?xml version="1.0" encoding="utf-8"?>
<!-- Generator: Adobe Illustrator 19.1.0, SVG Export Plug-In . SVG Version: 6.00 Build 0)  -->
<svg version="1.1" id="Layer_1" xmlns="http://www.w3.org/2000/svg" xmlns:xlink="http://www.w3.org/1999/xlink" x="0px" y="0px"
	 viewBox="0 0 20 16" enable-background="new 0 0 20 16" xml:space="preserve">
<path fill="#FFFFFF" d="M11.7,11.1L9.4,9.8c-0.1,0-0.1,0-0.2,0c-0.1,0-0.1,0.1-0.1,0.2v2.8c0,0.1,0,0.1,0.1,0.2c0,0,0.1,0,0.1,0
	c0,0,0.1,0,0.1,0l2.3-1.4c0.1,0,0.1-0.1,0.1-0.2C11.8,11.2,11.8,11.2,11.7,11.1z"/>
<path fill="#FFFFFF" d="M17.5,4.4l-1.7,2.2h-1.6l1.7-2.2h-1.6l-1.7,2.2H11l1.7-2.2h-1.5L9.5,6.7H7.9l1.7-2.2H8L6.3,6.7H4.7l1.7-2.2
	H1.7v10.9C1.7,15.7,2,16,2.4,16h15.3c0.4,0,0.7-0.3,0.7-0.7V4.4H17.5z M10.1,14.5c-1.8,0-3.2-1.4-3.2-3.2c0-1.8,1.4-3.2,3.2-3.2
	c1.8,0,3.2,1.4,3.2,3.2C13.3,13.1,11.9,14.5,10.1,14.5z"/>
<polygon fill="#FFFFFF" points="4.6,1.6 3,1.8 5,3.8 6.5,3.6 "/>
<polygon fill="#FFFFFF" points="7.7,1.2 6.1,1.4 8.1,3.4 9.7,3.2 "/>
<polygon fill="#FFFFFF" points="10.9,0.8 9.3,1 11.3,3 12.9,2.9 "/>
<polygon fill="#FFFFFF" points="14,0.5 12.4,0.7 14.4,2.7 16,2.5 "/>
<g>
	<polygon fill="#FFFFFF" points="17.9,0 15.6,0.3 17.6,2.3 18.2,2.2 	"/>
	<polygon fill="#FFFFFF" points="7.3,6.9 1.7,6.9 1.7,2 2.5,1.9 	"/>
</g>
</svg>
