<?xml version="1.0" encoding="utf-8"?>
<!-- Generator: Adobe Illustrator 19.1.0, SVG Export Plug-In . SVG Version: 6.00 Build 0)  -->
<svg version="1.1" id="Layer_1" xmlns="http://www.w3.org/2000/svg" xmlns:xlink="http://www.w3.org/1999/xlink" x="0px" y="0px"
	 viewBox="0 0 20 16" enable-background="new 0 0 20 16" xml:space="preserve">
<g>
	<g id="Guides_For_Artboard_27_">
	</g>
	<g id="Artwork_26_">
	</g>
	<g id="Layer_2_26_">
		<g>
			<path fill="#FFFFFF" d="M11.8,8.6c1.5-1.4,3.3-3.1,3.5-4.6c0.2-1.1,0-1.9-0.5-2.6c-0.5-0.7-1.3-1.1-2.4-1.2c-0.1,0-0.2,0-0.3,0
				c-0.8,0-1.6,0.3-2.2,0.8C9.4,0.5,8.6,0.2,7.8,0.2c-0.1,0-0.2,0-0.3,0C6.5,0.3,5.7,0.7,5.2,1.4C4.6,2.1,4.5,2.9,4.7,4
				c0.2,1.5,2,3.2,3.5,4.6c0,0,0.7,0.7,0.9,0.9C9.3,9.6,9.6,9.9,10,9.9c0.4,0,0.7-0.3,0.9-0.4C11.1,9.3,11.8,8.6,11.8,8.6z"/>
			<path fill="#FFFFFF" d="M7.4,10.9c-0.1-0.1-0.7-0.5-2.4-0.6c-0.1,0-0.2-0.1-0.3-0.1c0,0,0,0-0.1,0C4.6,10,4.5,10,4.4,9.9
				C4.3,9.7,4.1,9.6,4,9.4C3.2,8.3,2.3,8,2.2,8C2,7.9,1.9,7.9,1.9,7.8c0-0.1-0.2-1.4-0.2-1.6C1.6,5.5,1.6,5,1.2,4.8
				C1.1,4.8,1,4.8,1,4.9C0.9,5,0.8,5.5,0.8,5.8c0,0-0.1,1.8-0.1,2.4c0,0.6,1.1,3.1,1.6,3.6c0.6,0.6,3.2,2.1,3.2,2.1
				c0.1,0.1,0.6,0.5,0.6,1v0.6c0,0-0.1,0.6,0.5,0.6s1.4,0,2,0s0.5-0.5,0.5-0.7c0-0.1,0-0.2,0-0.3c0,0,0,0,0,0c0-0.2,0-0.4,0.1-0.6
				c0.1-0.2,0-0.6,0-0.8C8.9,12,7.6,11,7.4,10.9z"/>
			<path fill="#FFFFFF" d="M19.2,5.8c0-0.3-0.1-0.8-0.2-0.9c-0.1-0.1-0.1-0.1-0.2-0.1c-0.4,0.1-0.4,0.6-0.5,1.3
				c0,0.2-0.2,1.6-0.2,1.6c0,0.1-0.1,0.1-0.3,0.2c-0.1,0-1,0.3-1.8,1.5c-0.1,0.2-0.3,0.3-0.4,0.5c-0.1,0.1-0.2,0.1-0.2,0.2
				c0,0,0,0-0.1,0c-0.1,0.1-0.2,0.1-0.3,0.1c-1.7,0.1-2.4,0.6-2.4,0.6c-0.1,0.1-1.5,1-1.8,2.6c0,0.2-0.1,0.6,0,0.8
				c0,0.2,0.1,0.4,0.1,0.6c0,0,0,0,0,0c0,0.1,0,0.2,0,0.3c0,0.2-0.1,0.7,0.5,0.7c0.6,0,1.4,0,2,0c0.6,0,0.5-0.6,0.5-0.6v-0.6
				c0-0.5,0.5-0.9,0.6-1c0,0,2.8-1.6,3.2-2.1c0.4-0.4,1.6-3,1.6-3.6C19.4,7.5,19.2,5.8,19.2,5.8z"/>
		</g>
	</g>
</g>
</svg>
