<?xml version="1.0" encoding="utf-8"?>
<!-- Generator: Adobe Illustrator 19.1.0, SVG Export Plug-In . SVG Version: 6.00 Build 0)  -->
<svg version="1.1" id="Layer_1" xmlns="http://www.w3.org/2000/svg" xmlns:xlink="http://www.w3.org/1999/xlink" x="0px" y="0px"
	 viewBox="0 0 20 16" enable-background="new 0 0 20 16" xml:space="preserve">
<g>
	<path fill="#FFFFFF" d="M19.5,16h-19V0h19V16z M1.2,15.2h17.5V0.8H1.2V15.2z"/>
</g>
<path fill="#FFFFFF" d="M19.1,0H5.6v16h13.5c0.2,0,0.4-0.2,0.4-0.4V0.4C19.5,0.2,19.3,0,19.1,0z M13.2,5.5l0.9-0.4l-0.1-1
	C14,4,14.2,3.9,14.3,4L15,4.8l0.9-0.4c0.1-0.1,0.2,0.1,0.2,0.2l-0.5,0.9l0.7,0.8c0.1,0.1,0,0.2-0.1,0.2l-1-0.2l-0.5,0.9
	c-0.1,0.1-0.2,0.1-0.3-0.1l-0.1-1l-1-0.2C13.1,5.7,13.1,5.6,13.2,5.5z M16.9,10.2c-0.9,1.6-2.6,2.7-4.5,2.7c-2.8,0-5.1-2.3-5.1-5.1
	c0-2.2,1.4-4,3.3-4.8c0.1,0,0.1,0.1,0.1,0.1c0,0,0,0,0,0c-1.9,1.7-2.1,4.7-0.4,6.6C11.9,11.7,14.8,11.9,16.9,10.2
	C16.8,10.2,16.8,10.2,16.9,10.2C16.8,10.1,16.9,10.2,16.9,10.2z"/>
</svg>
