<?xml version="1.0" encoding="utf-8"?>
<!-- Generator: Adobe Illustrator 19.1.0, SVG Export Plug-In . SVG Version: 6.00 Build 0)  -->
<svg version="1.1" id="Layer_1" xmlns="http://www.w3.org/2000/svg" xmlns:xlink="http://www.w3.org/1999/xlink" x="0px" y="0px"
	 viewBox="0 0 20 16" enable-background="new 0 0 20 16" xml:space="preserve">
<g>
	<g>
		<path fill="#FFFFFF" d="M13.3,5.8H9.2V4.2c0.8-0.3,1.5-1.1,1.5-2.1C10.7,1,9.7,0,8.5,0S6.3,1,6.3,2.2c0,0.9,0.6,1.8,1.5,2.1v1.6
			H3.6c-0.4,0-0.7,0.3-0.7,0.7v2.2v0.7v0.7v1.5v0.7v0.7v2.2c0,0.4,0.3,0.7,0.7,0.7h9.7c0.4,0,0.7-0.3,0.7-0.7v-2.2v-0.7v-0.7v-1.5
			V9.5V8.7V6.5C14.1,6.1,13.7,5.8,13.3,5.8z M6.8,8.7c0.5,0,1,0.4,1,1s-0.4,1-1,1s-1-0.4-1-1S6.3,8.7,6.8,8.7z M10.4,13.1H6.5
			c-0.4,0-0.7-0.3-0.7-0.7c0-0.4,0.3-0.7,0.7-0.7h3.9c0.4,0,0.7,0.3,0.7,0.7C11.2,12.8,10.8,13.1,10.4,13.1z M10.2,10.7
			c-0.5,0-1-0.4-1-1s0.4-1,1-1c0.5,0,1,0.4,1,1S10.7,10.7,10.2,10.7z"/>
	</g>
</g>
<g>
	<g>
		<path fill="#FFFFFF" d="M0.7,8.7C0.3,8.7,0,9.1,0,9.5v2.9c0,0.4,0.3,0.7,0.7,0.7h0.7v-0.7v-0.7v-1.5V9.5V8.7L0.7,8.7L0.7,8.7z"/>
	</g>
</g>
<g>
	<g>
		<path fill="#FFFFFF" d="M16.2,8.7h-0.7v0.7v0.7v1.5v0.7v0.7h0.7c0.4,0,0.7-0.3,0.7-0.7V9.5C17,9.1,16.6,8.7,16.2,8.7z"/>
	</g>
</g>
</svg>
