<?xml version="1.0" encoding="utf-8"?>
<!-- Generator: Adobe Illustrator 19.1.0, SVG Export Plug-In . SVG Version: 6.00 Build 0)  -->
<svg version="1.1" id="Layer_1" xmlns="http://www.w3.org/2000/svg" xmlns:xlink="http://www.w3.org/1999/xlink" x="0px" y="0px"
	 viewBox="10 -0.8 15 15" enable-background="new 10 -0.8 15 15" xml:space="preserve">
<g id="Search">
	<path fill="#FFFFFF" d="M24.7,12l-3.3-3.3c0,0,0,0-0.1,0c0.6-1,1-2.1,1-3.4c0-3.4-2.8-6.2-6.2-6.2S10,1.9,10,5.3
		c0,3.4,2.8,6.2,6.2,6.2c1.3,0,2.4-0.4,3.4-1c0,0,0,0,0,0.1l3.3,3.3c0.5,0.5,1.3,0.5,1.8,0C25.2,13.3,25.2,12.5,24.7,12z M16.2,9.3
		c-2.2,0-4-1.8-4-4c0-2.2,1.8-4,4-4c2.2,0,4,1.8,4,4S18.4,9.3,16.2,9.3z"/>
</g>
</svg>
