<?xml version="1.0" encoding="utf-8"?>
<!-- Generator: Adobe Illustrator 19.1.0, SVG Export Plug-In . SVG Version: 6.00 Build 0)  -->
<svg version="1.1" id="Layer_1" xmlns="http://www.w3.org/2000/svg" xmlns:xlink="http://www.w3.org/1999/xlink" x="0px" y="0px"
	 viewBox="0 0 20 16" enable-background="new 0 0 20 16" xml:space="preserve">
<g>
	<g>
		<path fill="#FFFFFF" d="M17.1,3.8H12l1.8-3c0.2-0.3,0.1-0.6-0.2-0.8C13.3-0.1,13,0,12.8,0.3l-2.2,3.5H9.3L7.2,0.3
			C7,0,6.7-0.1,6.4,0.1C6.2,0.2,6.1,0.6,6.2,0.8l1.8,3H2.9C2.3,3.8,1.8,4.3,1.8,5v9.9c0,0.7,0.5,1.2,1.2,1.2h14.1
			c0.7,0,1.2-0.5,1.2-1.2V5C18.2,4.3,17.7,3.8,17.1,3.8z M13.3,13.4c0,0.4-0.3,0.7-0.7,0.7H4.3c-0.4,0-0.7-0.3-0.7-0.7v-7
			c0-0.4,0.3-0.7,0.7-0.7h8.3c0.4,0,0.7,0.3,0.7,0.7V13.4z M15.7,13.2c-0.6,0-1.1-0.5-1.1-1.1c0-0.6,0.5-1.1,1.1-1.1
			c0.6,0,1.1,0.5,1.1,1.1S16.4,13.2,15.7,13.2z M15.7,8.9c-0.6,0-1.1-0.5-1.1-1.1s0.5-1.1,1.1-1.1c0.6,0,1.1,0.5,1.1,1.1
			S16.4,8.9,15.7,8.9z"/>
	</g>
</g>
</svg>
