<?xml version="1.0" encoding="utf-8"?>
<!-- Generator: Adobe Illustrator 19.1.0, SVG Export Plug-In . SVG Version: 6.00 Build 0)  -->
<svg version="1.1" id="Layer_1" xmlns="http://www.w3.org/2000/svg" xmlns:xlink="http://www.w3.org/1999/xlink" x="0px" y="0px"
	 viewBox="0 0 20 16" enable-background="new 0 0 20 16" xml:space="preserve">
<g>
	<path fill="#FFFFFF" d="M17.3,2.3l-2.1-2.1C15.1,0.1,14.9,0,14.7,0c-0.2,0-0.4,0.1-0.6,0.2L4.9,9.4c-0.3,0.3-0.3,0.8,0,1.1L5.3,11
		l-3.5,3.5c0,0-0.1,0.1-0.1,0.3c0,0.1,0,0.2,0.1,0.3l0.7,0.7c0.1,0.1,0.2,0.1,0.3,0.1c0.2,0,0.3-0.1,0.3-0.1l3.5-3.5L7,12.6
		c0.2,0.2,0.4,0.2,0.6,0.2c0.2,0,0.4-0.1,0.6-0.2l9.2-9.2c0.2-0.2,0.2-0.4,0.2-0.6C17.6,2.7,17.5,2.5,17.3,2.3z"/>
	<path fill="#FFFFFF" d="M14.7,9.3c-0.9,0-1.7,0.8-1.7,1.7c0,0.9,0.8,1.7,1.7,1.7c0.9,0,1.7-0.8,1.7-1.7
		C16.4,10.1,15.6,9.3,14.7,9.3z"/>
</g>
</svg>
