<?xml version="1.0" encoding="utf-8"?>
<!-- Generator: Adobe Illustrator 19.1.0, SVG Export Plug-In . SVG Version: 6.00 Build 0)  -->
<svg version="1.1" id="Layer_1" xmlns="http://www.w3.org/2000/svg" xmlns:xlink="http://www.w3.org/1999/xlink" x="0px" y="0px"
	 viewBox="0 0 20 16" enable-background="new 0 0 20 16" xml:space="preserve">
<path fill="#FFFFFF" d="M10,0C5.6,0,2,3.6,2,8s3.6,8,8,8s8-3.6,8-8S14.4,0,10,0z M14.3,8.2l-6.1,4.1c0,0-0.1,0-0.2,0
	c0,0-0.1,0-0.1,0c-0.1,0-0.1-0.1-0.1-0.2V3.9c0-0.1,0.1-0.2,0.1-0.2c0.1,0,0.2,0,0.3,0l6.1,4.1c0.1,0.1,0.1,0.1,0.1,0.2
	S14.4,8.2,14.3,8.2z"/>
</svg>
