<?xml version="1.0" encoding="utf-8"?>
<!-- Generator: Adobe Illustrator 19.1.0, SVG Export Plug-In . SVG Version: 6.00 Build 0)  -->
<svg version="1.1" id="Layer_1" xmlns="http://www.w3.org/2000/svg" xmlns:xlink="http://www.w3.org/1999/xlink" x="0px" y="0px"
	 viewBox="0 0 20 16" enable-background="new 0 0 20 16" xml:space="preserve">
<g>
	<path fill="#FFFFFF" d="M4.7,2C4.6,2,4.6,2,4.6,2C4.6,2,4.6,2,4.7,2z"/>
	<path fill="#FFFFFF" d="M4.8,1.8c0,0-0.1,0.1-0.1,0.1C4.8,1.9,4.8,1.8,4.8,1.8z"/>
	<path fill="#FFFFFF" d="M5,1.7c0,0-0.1,0.1-0.1,0.1C4.9,1.7,5,1.7,5,1.7z"/>
	<path fill="#FFFFFF" d="M3.8,2.8c0,0,0.1-0.1,0.1-0.1C3.9,2.7,3.9,2.7,3.8,2.8z"/>
	<path fill="#FFFFFF" d="M4.4,2.2C4.4,2.1,4.5,2.1,4.4,2.2C4.5,2.1,4.4,2.1,4.4,2.2z"/>
	<path fill="#FFFFFF" d="M6.8,0.7c0,0-0.1,0-0.1,0C6.7,0.7,6.8,0.7,6.8,0.7z"/>
	<path fill="#FFFFFF" d="M16.2,8.3c-0.7-0.1-0.9-1.2-0.4-2c0.5-0.8,0.8-0.4,0.9-0.7c0.1-0.3-0.4-0.3-0.5-0.8
		c-0.1-0.4,0.4-1.1,0.4-1.1c-0.5-0.8-1.2-1.6-2-2.1c0,0-0.9-0.2-1.3,0.2c-0.3,0.3-0.9,1.1-1.3,0c-0.4-1,0-1.4,0-1.4
		c-0.7-0.2-1.4-0.3-2.1-0.3c0,0-0.5,0.3,0.5,0.9c1,0.6,0.6,0.8,0.3,1C10.4,2.1,10,1.6,9.8,1.3C9.6,0.9,8.5,0.4,7.7,0.7
		C6.9,1,6.3,1.2,6.4,1.4c0.1,0.3,1.5-0.2,2-0.2c0.5,0,0.3,0.3-0.1,0.7C7.7,2.3,7.7,2.7,8.2,3c0.5,0.3,1.1,0.3,1.3,0.1
		C9.6,3,9.2,1.9,10.2,2.4c1,0.5,1.8,0.8,1,1.5c-0.8,0.7-1.7,1.5-1.7,2c0,0.5,0.3,0.8,0.1,0.9c-0.2,0-0.3-0.2-0.4-0.3
		C9,6.2,8.4,6.1,8.2,6.2C7.9,6.3,7.4,6.7,7.7,7.1c0.3,0.4,0.6,0.2,1,0.4c0.4,0.2,0.7,0.8,0.6,1C9.3,8.6,9,8.4,8.7,7.9
		C8.5,7.4,8,7.7,7.6,7.6C7.3,7.5,7,7.5,6.7,6.9c-0.3-0.6-1-0.8-1.3-1.1C4.5,4.8,4.6,4,4.4,3.7C4.3,3.3,3.8,2.8,3.8,2.8
		C2.6,4.2,1.8,6,1.8,8c0,4.4,3.6,8,8,8s8-3.6,8-8C17.8,8,16.9,8.4,16.2,8.3z M13.5,10.5c-0.4,0.7-1.2,1.8-1.6,2.2
		c-0.4,0.3-0.8,0.6-1,1.2c-0.2,0.6-0.2,0.9,0.1,1.1c0,0-0.2,0.5-0.7-0.1c-0.5-0.6-0.1-1.4,0-1.8c0.1-0.4,0.3-1.7,0.2-2
		c-0.1-0.3-0.8-0.5-1-1.2C9.5,9.2,9.8,8,10.6,8.2c0,0,0.9,0.1,1.3,0.5C12.3,9,12.3,9.1,13,9.3C13.6,9.4,13.9,9.8,13.5,10.5z"/>
	<path fill="#FFFFFF" d="M4.4,2.2C4.3,2.3,4.3,2.3,4.4,2.2C4.3,2.3,4.3,2.3,4.4,2.2z"/>
	<path fill="#FFFFFF" d="M5.2,1.5C5.1,1.6,5.1,1.6,5,1.7C5.1,1.6,5.1,1.6,5.2,1.5z"/>
	<path fill="#FFFFFF" d="M6.3,0.9c0,0,0.1,0,0.1-0.1C6.4,0.8,6.3,0.9,6.3,0.9z"/>
	<path fill="#FFFFFF" d="M6.1,1C6,1,6,1,5.9,1.1C6,1,6,1,6.1,1z"/>
	<path fill="#FFFFFF" d="M6.6,0.7c0,0-0.1,0-0.1,0.1C6.5,0.8,6.6,0.8,6.6,0.7z"/>
	<path fill="#FFFFFF" d="M5.4,1.4c0,0,0.1-0.1,0.1-0.1C5.5,1.3,5.5,1.4,5.4,1.4z"/>
	<path fill="#FFFFFF" d="M5.4,1.4c-0.1,0-0.1,0.1-0.2,0.1C5.3,1.5,5.3,1.5,5.4,1.4z"/>
	<path fill="#FFFFFF" d="M5.7,1.2c0,0-0.1,0-0.1,0.1C5.6,1.3,5.7,1.2,5.7,1.2z"/>
	<path fill="#FFFFFF" d="M5.9,1.1c0,0-0.1,0-0.1,0.1C5.8,1.1,5.8,1.1,5.9,1.1z"/>
	<path fill="#FFFFFF" d="M9.8,0.1c-0.1,0-0.1,0-0.2,0C9.7,0.1,9.7,0.1,9.8,0.1z"/>
	<path fill="#FFFFFF" d="M13.2,0.9C13.3,0.9,13.3,0.9,13.2,0.9C13.3,0.9,13.3,0.9,13.2,0.9z"/>
	<path fill="#FFFFFF" d="M13.9,1.2C13.9,1.2,13.9,1.2,13.9,1.2C13.9,1.2,13.9,1.2,13.9,1.2z"/>
	<path fill="#FFFFFF" d="M4,2.6C4,2.6,4,2.5,4,2.6C4,2.5,4,2.6,4,2.6z"/>
	<path fill="#FFFFFF" d="M13.4,0.9C13.4,0.9,13.5,1,13.4,0.9C13.5,1,13.4,0.9,13.4,0.9z"/>
	<path fill="#FFFFFF" d="M13.6,1C13.6,1,13.6,1,13.6,1C13.6,1,13.6,1,13.6,1z"/>
	<path fill="#FFFFFF" d="M14.4,1.5C14.4,1.5,14.4,1.5,14.4,1.5C14.4,1.5,14.4,1.5,14.4,1.5z"/>
	<path fill="#FFFFFF" d="M14.2,1.4C14.2,1.4,14.3,1.4,14.2,1.4C14.3,1.4,14.2,1.4,14.2,1.4z"/>
	<path fill="#FFFFFF" d="M14,1.3C14.1,1.3,14.1,1.3,14,1.3C14.1,1.3,14.1,1.3,14,1.3z"/>
	<path fill="#FFFFFF" d="M13.7,1.1C13.8,1.1,13.8,1.1,13.7,1.1C13.8,1.1,13.8,1.1,13.7,1.1z"/>
	<path fill="#FFFFFF" d="M12.1,0.4C12.2,0.4,12.2,0.4,12.1,0.4C12.2,0.4,12.2,0.4,12.1,0.4z"/>
	<path fill="#FFFFFF" d="M11.9,0.4C12,0.4,12,0.4,11.9,0.4C12,0.4,12,0.4,11.9,0.4z"/>
	<path fill="#FFFFFF" d="M12.3,0.5C12.3,0.5,12.4,0.5,12.3,0.5C12.4,0.5,12.3,0.5,12.3,0.5z"/>
	<path fill="#FFFFFF" d="M4.2,2.4C4.2,2.4,4.2,2.4,4.2,2.4C4.2,2.4,4.2,2.4,4.2,2.4z"/>
	<path fill="#FFFFFF" d="M12.5,0.5C12.5,0.5,12.5,0.6,12.5,0.5C12.5,0.6,12.5,0.5,12.5,0.5z"/>
	<path fill="#FFFFFF" d="M12.9,0.7C12.9,0.7,12.9,0.7,12.9,0.7C12.9,0.7,12.9,0.7,12.9,0.7z"/>
	<path fill="#FFFFFF" d="M12.7,0.6C12.7,0.6,12.7,0.6,12.7,0.6C12.7,0.6,12.7,0.6,12.7,0.6z"/>
	<path fill="#FFFFFF" d="M13.1,0.8C13.1,0.8,13.1,0.8,13.1,0.8C13.1,0.8,13.1,0.8,13.1,0.8z"/>
	<path fill="#FFFFFF" d="M6.2,0.9c0,0-0.1,0-0.1,0.1C6.2,1,6.2,0.9,6.2,0.9z"/>
	<path fill="#FFFFFF" d="M17.3,5.3C17.3,5.3,17.3,5.3,17.3,5.3C17.3,5.3,17.3,5.3,17.3,5.3z"/>
	<path fill="#FFFFFF" d="M17.4,5.5C17.4,5.5,17.4,5.5,17.4,5.5C17.4,5.5,17.4,5.5,17.4,5.5z"/>
	<path fill="#FFFFFF" d="M17.4,5.7C17.4,5.7,17.4,5.7,17.4,5.7C17.4,5.7,17.4,5.7,17.4,5.7z"/>
	<path fill="#FFFFFF" d="M17.5,5.9C17.5,5.9,17.5,5.8,17.5,5.9C17.5,5.8,17.5,5.9,17.5,5.9z"/>
	<path fill="#FFFFFF" d="M17.5,6.1C17.5,6.1,17.5,6,17.5,6.1C17.5,6,17.5,6.1,17.5,6.1z"/>
	<path fill="#FFFFFF" d="M17.2,5.1C17.2,5.1,17.2,5.1,17.2,5.1C17.2,5.1,17.2,5.1,17.2,5.1z"/>
	<path fill="#FFFFFF" d="M17,4.6C17,4.6,17,4.6,17,4.6C17,4.6,17,4.6,17,4.6z"/>
	<path fill="#FFFFFF" d="M16.9,4.4C16.9,4.4,16.9,4.4,16.9,4.4C16.9,4.4,16.9,4.4,16.9,4.4z"/>
	<path fill="#FFFFFF" d="M17.1,4.8C17.1,4.8,17.1,4.7,17.1,4.8C17.1,4.7,17.1,4.8,17.1,4.8z"/>
	<path fill="#FFFFFF" d="M17.7,7.4C17.7,7.4,17.7,7.4,17.7,7.4C17.7,7.4,17.7,7.4,17.7,7.4z"/>
	<path fill="#FFFFFF" d="M17.8,7.7C17.8,7.6,17.8,7.6,17.8,7.7C17.8,7.6,17.8,7.6,17.8,7.7z"/>
	<path fill="#FFFFFF" d="M17.7,7.2C17.7,7.2,17.7,7.2,17.7,7.2C17.7,7.2,17.7,7.2,17.7,7.2z"/>
	<path fill="#FFFFFF" d="M17.6,6.3C17.6,6.2,17.6,6.2,17.6,6.3C17.6,6.2,17.6,6.2,17.6,6.3z"/>
	<path fill="#FFFFFF" d="M17.8,7.9C17.8,7.8,17.8,7.8,17.8,7.9C17.8,7.8,17.8,7.8,17.8,7.9z"/>
	<path fill="#FFFFFF" d="M17.7,7C17.7,7,17.7,7,17.7,7C17.7,7,17.7,7,17.7,7z"/>
	<path fill="#FFFFFF" d="M17.6,6.7C17.6,6.6,17.6,6.6,17.6,6.7C17.6,6.6,17.6,6.6,17.6,6.7z"/>
	<path fill="#FFFFFF" d="M17.7,6.8C17.7,6.8,17.7,6.8,17.7,6.8C17.7,6.8,17.7,6.8,17.7,6.8z"/>
	<path fill="#FFFFFF" d="M7.7,0.4c0,0,0.1,0,0.1,0C7.8,0.3,7.8,0.3,7.7,0.4z"/>
	<path fill="#FFFFFF" d="M8.1,0.3c0,0,0.1,0,0.1,0C8.2,0.2,8.2,0.2,8.1,0.3z"/>
	<path fill="#FFFFFF" d="M8.7,0.2c0,0-0.1,0-0.1,0C8.6,0.2,8.6,0.2,8.7,0.2z"/>
	<path fill="#FFFFFF" d="M7,0.6c0,0-0.1,0-0.1,0C6.9,0.6,7,0.6,7,0.6z"/>
	<path fill="#FFFFFF" d="M8.4,0.2c0,0-0.1,0-0.1,0C8.4,0.2,8.4,0.2,8.4,0.2z"/>
	<path fill="#FFFFFF" d="M8,0.3c0,0-0.1,0-0.1,0C8,0.3,8,0.3,8,0.3z"/>
	<path fill="#FFFFFF" d="M7.2,0.5c-0.1,0-0.1,0-0.2,0.1C7.1,0.5,7.2,0.5,7.2,0.5z"/>
	<path fill="#FFFFFF" d="M7.6,0.4c0,0-0.1,0-0.1,0C7.5,0.4,7.6,0.4,7.6,0.4z"/>
	<path fill="#FFFFFF" d="M7.4,0.4c-0.1,0-0.1,0-0.2,0.1C7.3,0.5,7.4,0.4,7.4,0.4z"/>
	<path fill="#FFFFFF" d="M8.9,0.1c0,0-0.1,0-0.1,0C8.8,0.1,8.8,0.1,8.9,0.1z"/>
	<path fill="#FFFFFF" d="M16.6,3.9C16.6,3.9,16.6,3.9,16.6,3.9C16.6,3.9,16.6,3.9,16.6,3.9z"/>
	<path fill="#FFFFFF" d="M16.5,3.8C16.5,3.8,16.5,3.7,16.5,3.8C16.5,3.7,16.5,3.8,16.5,3.8z"/>
	<path fill="#FFFFFF" d="M16.8,4.3C16.8,4.2,16.8,4.2,16.8,4.3C16.8,4.2,16.8,4.2,16.8,4.3z"/>
	<path fill="#FFFFFF" d="M16.7,4.1C16.7,4.1,16.7,4.1,16.7,4.1C16.7,4.1,16.7,4.1,16.7,4.1z"/>
	<path fill="#FFFFFF" d="M9.5,0.1c0,0-0.1,0-0.1,0C9.4,0.1,9.5,0.1,9.5,0.1z"/>
	<path fill="#FFFFFF" d="M9.3,0.1c0,0-0.1,0-0.1,0C9.2,0.1,9.3,0.1,9.3,0.1z"/>
	<path fill="#FFFFFF" d="M9.1,0.1c0,0-0.1,0-0.1,0C9,0.1,9,0.1,9.1,0.1z"/>
</g>
</svg>
